<?xml version="1.0" standalone="no"?>
<!DOCTYPE svg PUBLIC "-//W3C//DTD SVG 20010904//EN"
 "http://www.w3.org/TR/2001/REC-SVG-20010904/DTD/svg10.dtd">
<svg version="1.0" xmlns="http://www.w3.org/2000/svg"
 width="941.000000pt" height="348.000000pt" viewBox="0 0 941.000000 348.000000"
 preserveAspectRatio="xMidYMid meet">

<g transform="translate(0.000000,348.000000) scale(0.100000,-0.100000)"
fill="#000000" stroke="none">
<path d="M4377 2938 c-3 -68 -5 -300 -4 -516 l2 -392 -95 -2 c-132 -3 -204 1
-208 12 -2 6 -16 3 -32 -5 -16 -8 -46 -16 -67 -16 -21 -1 -30 -3 -20 -6 32 -8
19 -39 -28 -64 -51 -27 -57 -39 -20 -39 16 0 31 -10 42 -27 16 -24 18 -51 15
-248 -1 -121 -5 -232 -8 -246 -3 -16 -17 -32 -37 -42 -31 -15 -30 -16 83 -19
63 -1 169 -1 236 0 98 2 124 0 134 -13 10 -12 10 -18 0 -30 -6 -8 -9 -18 -6
-23 3 -5 6 -58 7 -118 1 -60 5 -140 9 -179 6 -56 8 -34 10 110 1 99 3 196 4
215 l1 35 424 -2 425 -2 42 -31 c32 -23 53 -30 88 -30 68 0 64 -16 -12 -35
-149 -40 -221 -95 -225 -173 -7 -188 318 -262 551 -126 102 60 160 137 169
227 6 62 -15 118 -53 144 -13 8 -24 19 -24 23 0 11 214 8 221 -3 4 -5 4 -37 2
-71 -3 -33 0 -72 5 -86 10 -24 11 -24 12 10 0 19 4 41 9 49 6 9 5 23 -2 38 -7
16 -7 30 1 47 l10 23 329 -1 c350 -3 483 2 483 15 0 5 -51 9 -114 9 -93 0
-116 3 -127 17 -11 12 -15 78 -19 287 -5 225 -8 276 -22 301 -47 86 -124 105
-241 60 -40 -15 -83 -36 -97 -45 -14 -10 -44 -27 -68 -39 -38 -19 -43 -20 -49
-5 -3 9 -3 162 1 340 6 243 4 324 -4 324 -7 0 -23 -9 -37 -20 -14 -11 -29 -20
-34 -20 -4 0 -8 48 -9 108 -1 93 -6 209 -9 250 -1 7 -5 11 -10 8 -5 -3 -7 -93
-5 -200 l4 -195 -48 -28 -47 -28 35 -5 c55 -8 64 -37 60 -210 -4 -191 -4 -194
0 -556 4 -252 2 -314 -9 -328 -12 -14 -48 -16 -307 -16 -167 0 -304 4 -318 10
-15 5 -32 21 -38 36 -11 24 -10 29 17 50 17 13 73 41 125 61 202 78 265 147
265 293 0 64 -4 82 -28 123 l-28 47 70 0 c67 0 71 1 77 25 4 14 4 29 1 32 -4
3 -55 6 -114 8 -59 1 -147 5 -194 10 -62 5 -96 4 -125 -5 -46 -16 -427 -15
-432 1 -2 5 -13 2 -25 -6 -17 -12 -59 -15 -213 -15 -106 0 -199 3 -208 6 -14
5 -16 37 -16 258 1 288 8 365 49 482 16 49 24 83 17 81 -18 -6 -140 -172 -156
-211 -7 -20 -17 -36 -21 -36 -4 0 -8 102 -7 226 0 124 -2 228 -5 230 -2 3 -7
-51 -10 -118z m1196 -972 c102 -101 104 -333 3 -395 -49 -31 -122 -31 -170 -2
-79 49 -116 128 -116 246 0 127 30 179 109 193 85 14 127 4 174 -42z m-1205
30 c4 -4 6 -143 5 -309 -2 -231 -5 -303 -15 -313 -8 -7 -61 -15 -134 -19 -140
-8 -148 -4 -160 70 -8 56 -1 556 8 571 8 12 284 12 296 0z m502 -3 c0 -17 -24
-38 -59 -53 -39 -16 -39 -26 -1 -34 20 -4 34 -14 40 -31 6 -15 10 -131 10
-259 0 -185 -3 -236 -14 -252 -13 -17 -25 -19 -147 -16 -144 3 -154 7 -176 59
-17 42 -19 589 -2 595 6 2 87 3 180 3 123 0 169 -3 169 -12z m420 5 c0 -4 -18
-31 -39 -59 -37 -49 -44 -67 -58 -148 -15 -89 47 -206 138 -262 59 -37 56 -46
-29 -78 -80 -30 -100 -46 -85 -70 17 -27 1 -31 -122 -31 -83 0 -105 3 -116 17
-11 13 -14 76 -14 312 0 163 3 303 7 312 5 13 29 15 162 15 86 -1 156 -4 156
-8z m1141 -44 c12 -10 30 -38 40 -62 17 -39 19 -71 19 -277 0 -200 -2 -234
-16 -246 -19 -15 -311 -25 -332 -11 -24 16 -32 85 -32 303 0 161 3 219 13 227
20 17 127 74 156 83 43 14 128 5 152 -17z m-824 -708 c58 -6 100 -24 138 -61
19 -20 25 -36 25 -70 0 -134 -101 -209 -281 -209 -77 0 -94 3 -145 30 -74 37
-104 80 -104 144 0 42 4 52 34 78 70 61 237 70 334 17 34 -18 55 -37 58 -52
10 -38 -16 -83 -65 -114 -40 -26 -54 -29 -124 -29 -73 0 -80 2 -108 29 -23 24
-27 34 -20 53 12 34 68 68 110 68 39 0 81 -23 81 -44 0 -25 -37 -48 -72 -44
-27 2 -33 7 -32 26 0 16 -4 22 -15 20 -10 -2 -16 -13 -16 -28 0 -54 105 -63
145 -13 26 34 25 49 -6 78 -22 21 -37 25 -84 25 -126 0 -187 -108 -97 -172 27
-19 44 -23 112 -23 93 0 137 17 184 70 29 34 36 55 32 99 -4 43 -65 84 -159
106 -65 15 -78 31 -20 25 24 -2 66 -6 95 -9z"/>
<path d="M2279 2869 c0 -46 -2 -210 -4 -363 l-4 -279 -43 -44 c-24 -23 -74
-67 -113 -97 l-70 -54 -142 -1 -141 -1 -7 29 c-14 66 -96 110 -168 90 -42 -11
-97 -61 -121 -110 -9 -18 -16 -57 -16 -88 0 -66 23 -111 72 -141 57 -34 169
-22 207 23 16 20 18 20 -43 2 -92 -28 -166 22 -174 118 l-4 53 318 1 c210 1
323 -2 331 -9 10 -8 13 -79 13 -307 0 -278 1 -298 20 -329 11 -18 31 -37 44
-42 13 -5 27 -13 30 -19 4 -6 8 -227 10 -491 2 -264 6 -484 10 -487 3 -3 6
171 7 388 1 427 3 508 14 555 6 29 12 32 78 48 40 9 90 26 112 37 l40 19 -73
-5 c-49 -4 -83 -1 -105 9 -65 27 -64 21 -63 341 l1 290 190 1 c153 1 195 -2
215 -14 35 -21 58 -49 72 -88 7 -19 15 -34 19 -34 3 0 14 -26 24 -57 10 -32
22 -65 26 -73 15 -30 40 -90 54 -130 8 -22 21 -55 29 -73 8 -17 26 -66 41
-107 44 -124 48 -131 56 -123 4 4 44 100 89 213 89 224 95 238 112 275 12 26
28 34 28 13 0 -6 9 -30 19 -52 10 -23 27 -63 36 -91 19 -57 28 -79 43 -115 22
-52 28 -87 26 -147 -2 -35 2 -63 7 -63 5 0 9 5 9 10 0 21 20 9 26 -15 3 -14
11 -25 18 -25 9 0 192 437 205 490 12 48 73 160 100 183 28 23 39 26 87 22 31
-2 65 0 77 5 27 11 45 10 -271 15 -128 1 -236 6 -239 9 -3 3 -7 104 -8 223 -2
250 -2 259 -12 249 -5 -4 -8 -110 -8 -236 0 -126 -3 -232 -7 -235 -8 -9 5 -9
-445 -7 -349 2 -353 2 -353 22 0 20 -3 21 -124 14 -100 -5 -125 -4 -132 7 -12
19 -14 611 -2 626 5 7 7 21 3 31 -3 11 -7 64 -10 117 -4 121 -15 137 -16 24z
m-621 -762 c7 -6 20 -23 28 -39 19 -37 11 -40 -92 -36 -73 3 -79 5 -76 23 11
61 93 91 140 52z m1517 -141 c56 -56 67 -104 37 -156 -11 -19 -35 -74 -52
-120 -56 -147 -89 -220 -98 -220 -6 0 -65 140 -173 414 -23 60 -24 84 -2 108
14 15 32 18 130 18 l114 0 44 -44z m422 34 c75 0 88 -42 43 -145 -10 -22 -23
-56 -30 -75 -7 -19 -24 -59 -37 -88 -12 -29 -23 -57 -23 -62 0 -5 -13 -39 -30
-75 -16 -36 -30 -71 -30 -77 0 -30 -23 16 -60 121 -39 108 -41 120 -44 250 -2
75 -1 142 2 150 4 11 22 12 86 7 45 -3 100 -6 123 -6z m-243 -16 c9 -24 7
-144 -2 -144 -21 0 -43 136 -25 153 11 11 20 8 27 -9z"/>
<path d="M1028 2388 l-47 -31 24 -18 23 -19 -1 -241 c-2 -257 1 -242 -52 -274
-12 -7 7 -9 67 -8 46 1 85 2 88 3 3 0 -6 9 -20 20 -23 17 -25 26 -28 115 -2
53 -1 106 2 118 7 28 64 57 110 57 58 0 66 -20 66 -158 0 -111 -2 -123 -20
-134 -11 -7 -20 -15 -20 -18 0 -3 34 -5 75 -5 41 0 75 3 75 6 0 4 -11 14 -25
23 -25 16 -25 19 -25 145 0 113 -2 131 -20 153 -28 37 -50 39 -127 12 -37 -13
-74 -24 -82 -24 -11 0 -13 27 -8 155 2 85 2 155 -2 155 -3 0 -27 -15 -53 -32z"/>
<path d="M3991 2371 c-18 -33 -19 -44 -9 -66 23 -51 100 -37 114 21 9 33 -24
78 -59 82 -22 3 -29 -4 -46 -37z"/>
<path d="M4900 2388 c-40 -43 -19 -117 33 -118 24 0 67 44 67 70 0 24 -42 70
-64 70 -8 0 -24 -10 -36 -22z"/>
<path d="M6999 2319 c-1 -13 0 -53 1 -88 l2 -63 -106 -104 -106 -104 45 0 c24
0 47 -5 51 -12 4 -6 6 -132 5 -279 -2 -182 1 -269 8 -274 20 -12 13 -45 -10
-45 -35 0 -12 -17 32 -23 81 -11 80 -7 78 -295 0 -139 2 -256 5 -260 3 -3 7
100 8 229 1 129 2 247 2 263 1 28 5 30 71 47 72 18 94 20 300 17 178 -2 225 1
225 12 0 6 -63 10 -169 10 -93 0 -181 4 -195 10 -17 6 -44 6 -75 0 -56 -10
-107 0 -137 29 -19 18 -20 30 -20 292 l1 274 113 0 c116 0 131 5 132 44 0 11
-19 13 -101 9 -55 -3 -111 -3 -125 0 l-24 4 1 160 c1 87 -1 162 -5 165 -3 4
-7 -5 -7 -18z"/>
<path d="M728 2161 c-53 -52 -57 -61 -29 -61 28 0 31 -18 31 -159 0 -85 4
-131 12 -139 15 -15 85 -16 127 -1 40 14 41 34 1 25 -38 -7 -79 11 -86 38 -3
12 -4 68 -2 126 l3 105 60 5 c44 4 60 9 60 20 0 11 -14 16 -57 18 l-58 3 0 34
c0 19 -3 35 -7 34 -5 0 -29 -22 -55 -48z"/>
<path d="M7510 2162 c-31 -14 -56 -37 -67 -64 -20 -45 -1 -79 72 -127 88 -57
107 -98 65 -136 -39 -35 -98 -6 -147 71 -10 16 -12 12 -12 -29 -1 -46 1 -49
34 -63 67 -27 132 -12 174 42 44 55 19 111 -73 163 -64 37 -84 72 -61 107 8
13 22 24 31 24 28 0 70 -28 82 -55 7 -14 16 -23 22 -20 13 8 1 68 -18 83 -17
13 -77 15 -102 4z"/>
<path d="M7878 2160 c-55 -16 -128 -74 -128 -100 0 -14 44 -12 58 2 7 7 12 22
12 34 0 36 58 47 98 18 19 -13 22 -24 22 -78 l0 -63 -43 -6 c-65 -9 -136 -43
-146 -70 -31 -82 57 -123 150 -69 24 14 28 13 48 -7 24 -24 48 -26 86 -9 33
15 32 26 -2 30 l-28 3 -5 143 c-5 136 -6 145 -29 163 -25 20 -49 22 -93 9z
m56 -226 c11 -30 6 -67 -11 -80 -10 -7 -37 -14 -60 -14 -46 0 -70 24 -58 59
12 38 117 67 129 35z"/>
<path d="M8225 2161 c-29 -13 -71 -57 -85 -91 -18 -43 -4 -95 36 -140 l34 -38
-36 -21 -37 -22 29 -30 29 -31 -25 -19 c-54 -43 -60 -49 -66 -74 -14 -55 66
-115 154 -115 83 0 193 70 210 134 21 78 -31 118 -152 114 -107 -2 -140 33
-58 61 68 23 97 39 127 71 25 26 30 39 30 78 0 26 -4 55 -9 65 -7 14 -3 17 18
17 23 0 46 24 35 34 -10 9 -216 15 -234 7z m68 -20 c62 -24 93 -161 45 -195
-60 -42 -132 -1 -144 83 -8 55 4 92 36 108 30 15 32 15 63 4z m104 -387 c73
-46 5 -134 -105 -134 -82 0 -122 27 -122 84 0 44 26 65 88 68 72 4 111 -1 139
-18z"/>
<path d="M8640 2149 c-75 -34 -129 -99 -82 -99 23 0 42 19 42 42 0 38 77 51
110 18 15 -15 20 -33 20 -75 0 -52 -2 -55 -27 -60 -55 -11 -128 -36 -143 -48
-37 -30 -43 -45 -29 -76 23 -52 79 -61 152 -24 25 13 30 12 54 -7 32 -25 64
-26 94 0 l24 19 -26 1 c-44 0 -50 19 -48 137 2 146 2 146 -21 171 -26 27 -62
28 -120 1z m84 -224 c9 -34 -7 -60 -45 -75 -40 -17 -83 -3 -87 28 -4 30 13 50
52 61 55 16 73 13 80 -14z"/>
<path d="M3383 1280 c0 -25 2 -35 4 -22 2 12 2 32 0 45 -2 12 -4 2 -4 -23z"/>
</g>
</svg>
